<svg width="1280" height="640" viewBox="0 0 1280 640" fill="none" xmlns="http://www.w3.org/2000/svg">
  <rect width="1280" height="640" rx="32" fill="#0B1020"/>
  <circle cx="1090" cy="120" r="160" fill="#5865F2" fill-opacity="0.12"/>
  <circle cx="170" cy="530" r="200" fill="#22C55E" fill-opacity="0.08"/>
  <rect x="80" y="88" width="480" height="464" rx="28" fill="#121A31" stroke="#27314F"/>
  <rect x="720" y="120" width="420" height="320" rx="28" fill="#121A31" stroke="#27314F"/>
  <text x="120" y="180" fill="#94A3B8" font-family="Arial, sans-serif" font-size="24">AI Agent Skill</text>
  <text x="120" y="250" fill="#FFFFFF" font-family="Arial, sans-serif" font-size="64" font-weight="700">Self VPN</text>
  <text x="120" y="320" fill="#FFFFFF" font-family="Arial, sans-serif" font-size="64" font-weight="700">Setup</text>
  <text x="120" y="390" fill="#A5B4FC" font-family="Arial, sans-serif" font-size="28">让 AI 带你完成自部署 VPN 全流程</text>
  <text x="120" y="450" fill="#94A3B8" font-family="Arial, sans-serif" font-size="24">VPS → Server Setup → Client Import → Connectivity Check</text>
  <rect x="120" y="486" width="220" height="44" rx="22" fill="#5865F2"/>
  <text x="154" y="514" fill="#FFFFFF" font-family="Arial, sans-serif" font-size="22">Open Source Skill</text>
  <rect x="780" y="170" width="300" height="70" rx="18" fill="#0B1020" stroke="#27314F"/>
  <text x="816" y="214" fill="#FFFFFF" font-family="Arial, sans-serif" font-size="28">Buy VPS</text>
  <rect x="780" y="260" width="300" height="70" rx="18" fill="#0B1020" stroke="#27314F"/>
  <text x="816" y="304" fill="#FFFFFF" font-family="Arial, sans-serif" font-size="28">Install Server</text>
  <rect x="780" y="350" width="300" height="70" rx="18" fill="#0B1020" stroke="#27314F"/>
  <text x="816" y="394" fill="#FFFFFF" font-family="Arial, sans-serif" font-size="28">Import Client</text>
  <path d="M680 205H760" stroke="#5865F2" stroke-width="6" stroke-linecap="round"/>
  <path d="M680 295H760" stroke="#5865F2" stroke-width="6" stroke-linecap="round"/>
  <path d="M680 385H760" stroke="#5865F2" stroke-width="6" stroke-linecap="round"/>
  <circle cx="648" cy="205" r="20" fill="#22C55E"/>
  <circle cx="648" cy="295" r="20" fill="#22C55E"/>
  <circle cx="648" cy="385" r="20" fill="#22C55E"/>
</svg>
